<?xml version="1.0" encoding="UTF-8"?>
<svg id="Calque_2" data-name="Calque 2" xmlns="http://www.w3.org/2000/svg" viewBox="0 0 1822.78 363.42">
  <defs>
    <style>
      .cls-1 {
        fill: #f8f5f4;
      }

      .cls-2 {
        fill: #ef530f;
      }
    </style>
  </defs>
  <g id="_éléments_graphiques" data-name="éléments graphiques">
    <path class="cls-2" d="M0,362.4s46.69-5.1,81.88-36.72c35.19-31.62,58.61-83.46,88.75-150.54,30.13-67.08,63.27-103.49,98.46-115.94,0,0-31.49,15.05-67.38,103.49-35.89,88.43-59.85,129.98-94.91,157.29-32.08,24.99-69.15,40.37-106.8,42.42Z"/>
    <g>
      <path class="cls-1" d="M251.28,361.69c-12.39,0-22.66-1.95-30.8-5.83-8.14-3.88-14.58-8.38-19.32-13.48-4.74-5.1-8.33-9.48-10.75-13.12h-2.19v28.79h-41.55V81.06h41.55v112.62h2.19c2.43-3.65,6.01-8.02,10.75-13.12,4.74-5.1,11.17-9.6,19.32-13.48,8.14-3.88,18.41-5.83,30.8-5.83,14.33,0,26.97,2.86,37.9,8.57,10.93,5.71,19.98,13.36,27.15,22.96,7.16,9.6,12.51,20.35,16.04,32.25,3.52,11.91,5.28,24.05,5.28,36.45s-1.77,24.54-5.28,36.45c-3.52,11.91-8.87,22.66-16.04,32.25-7.17,9.6-16.22,17.25-27.15,22.96-10.93,5.71-23.57,8.56-37.9,8.56ZM241.81,327.07c12.15,0,22.17-3.22,30.07-9.66,7.89-6.43,13.85-14.63,17.86-24.6,4.01-9.96,6.01-20.41,6.01-31.34s-2.01-21.38-6.01-31.34c-4.01-9.96-9.97-18.16-17.86-24.6-7.9-6.43-17.92-9.66-30.07-9.66s-21.81,3.22-29.7,9.66c-7.9,6.44-13.85,14.64-17.86,24.6-4.01,9.96-6.01,20.41-6.01,31.34s2.01,21.38,6.01,31.34c4.01,9.97,9.96,18.16,17.86,24.6,7.89,6.44,17.8,9.66,29.7,9.66Z"/>
      <path class="cls-1" d="M365.35,358.05l.37-276.98h41.18v276.98h-41.55Z"/>
      <path class="cls-1" d="M528.63,361.69c-16.28,0-30.31-2.86-42.09-8.56-11.79-5.71-21.5-13.36-29.16-22.96-7.65-9.6-13.36-20.35-17.13-32.25-3.77-11.9-5.65-24.05-5.65-36.45s1.82-24.17,5.47-36.08c3.65-11.9,9.23-22.72,16.77-32.44,7.53-9.72,17.13-17.43,28.79-23.14,11.66-5.71,25.39-8.57,41.18-8.57,17,0,32.01,3.83,45.01,11.48,12.99,7.65,23.2,18.95,30.61,33.89,7.41,14.94,11.12,33.47,11.12,55.58v11.3h-137.03c.97,14.82,5.95,27.58,14.94,38.27,8.99,10.7,21.38,16.04,37.17,16.04,8.99,0,16.4-1.51,22.23-4.55,5.83-3.04,10.32-6.5,13.48-10.39,3.16-3.88,6.07-8.75,8.75-14.58h38.63c-2.43,8.51-5.29,15.92-8.57,22.23-3.28,6.32-7.96,12.64-14.03,18.95-6.08,6.32-14.09,11.61-24.05,15.85-9.97,4.25-22.11,6.38-36.45,6.38ZM476.87,244.34h96.58c-.97-17-6.01-29.52-15.12-37.54-9.11-8.02-19.74-12.03-31.89-12.03-13.61,0-24.91,4.44-33.89,13.3-8.99,8.87-14.21,20.96-15.67,36.26Z"/>
      <path class="cls-1" d="M637.6,358.05v-193.16h41.55v28.06h2.19c1.7-3.4,4.61-7.59,8.75-12.57,4.13-4.98,9.9-9.41,17.31-13.3,7.41-3.88,16.82-5.83,28.24-5.83,14.33,0,26.36,3.28,36.08,9.84,9.72,6.56,17.07,15.31,22.05,26.24,4.98,10.93,7.47,22.96,7.47,36.08v124.64h-41.55v-120.27c0-11.66-3.22-21.5-9.66-29.52-6.44-8.02-15.98-12.03-28.61-12.03-9.96,0-18.04,2.49-24.23,7.47-6.2,4.98-10.75,11.42-13.67,19.32-2.92,7.9-4.37,16.34-4.37,25.33v109.7h-41.55Z"/>
      <path class="cls-1" d="M912.02,361.69c-14.58,0-27.28-2.86-38.08-8.56-10.81-5.71-19.86-13.36-27.15-22.96-7.29-9.6-12.7-20.35-16.22-32.25-3.52-11.9-5.28-24.05-5.28-36.45s1.76-24.54,5.28-36.45c3.52-11.9,8.93-22.65,16.22-32.25,7.29-9.6,16.34-17.25,27.15-22.96,10.81-5.71,23.51-8.57,38.08-8.57,12.15,0,22.29,1.95,30.43,5.83,8.14,3.89,14.63,8.38,19.5,13.48,4.86,5.1,8.38,9.48,10.57,13.12h2.19v-112.62h41.55v276.98h-41.55v-28.79h-2.19c-2.19,3.64-5.71,8.02-10.57,13.12-4.86,5.1-11.36,9.6-19.5,13.48-8.14,3.88-18.29,5.83-30.43,5.83ZM921.14,327.07c11.9,0,21.81-3.22,29.7-9.66,7.89-6.43,13.85-14.63,17.86-24.6,4.01-9.96,6.01-20.41,6.01-31.34s-2.01-21.38-6.01-31.34c-4.01-9.96-9.97-18.16-17.86-24.6-7.9-6.43-17.8-9.66-29.7-9.66s-21.87,3.22-29.88,9.66c-8.02,6.44-14.03,14.64-18.04,24.6-4.01,9.96-6.01,20.41-6.01,31.34s2.01,21.38,6.01,31.34c4.01,9.97,10.02,18.16,18.04,24.6,8.02,6.44,17.98,9.66,29.88,9.66Z"/>
      <path class="cls-1" d="M1073.84,131.72c-7.53,0-13.73-2.55-18.59-7.65-4.86-5.1-7.29-11.05-7.29-17.86s2.43-13.06,7.29-18.04c4.86-4.98,11.05-7.47,18.59-7.47s13.79,2.49,18.77,7.47c4.98,4.98,7.47,11,7.47,18.04s-2.49,13.06-7.47,18.04c-4.98,4.98-11.24,7.47-18.77,7.47ZM1053.43,358.05v-193.16h41.55v193.16h-41.55Z"/>
      <path class="cls-1" d="M1128.14,358.05v-193.16h41.55v28.06h2.19c1.7-3.4,4.61-7.59,8.75-12.57,4.13-4.98,9.9-9.41,17.31-13.3,7.41-3.88,16.82-5.83,28.24-5.83,14.33,0,26.36,3.28,36.08,9.84,9.72,6.56,17.07,15.31,22.05,26.24,4.98,10.93,7.47,22.96,7.47,36.08v124.64h-41.55v-120.27c0-11.66-3.22-21.5-9.66-29.52-6.44-8.02-15.98-12.03-28.61-12.03-9.96,0-18.04,2.49-24.23,7.47-6.2,4.98-10.75,11.42-13.67,19.32-2.92,7.9-4.37,16.34-4.37,25.33v109.7h-41.55Z"/>
      <path class="cls-1" d="M1319.84,358.05v-193.16h41.55v28.06h2.19c1.7-3.4,4.61-7.59,8.75-12.57,4.13-4.98,9.9-9.41,17.31-13.3,7.41-3.88,16.82-5.83,28.24-5.83,14.33,0,26.36,3.28,36.08,9.84,9.72,6.56,17.07,15.31,22.05,26.24,4.98,10.93,7.47,22.96,7.47,36.08v124.64h-41.55v-120.27c0-11.66-3.22-21.5-9.66-29.52-6.44-8.02-15.98-12.03-28.61-12.03-9.96,0-18.04,2.49-24.23,7.47-6.2,4.98-10.75,11.42-13.67,19.32-2.92,7.9-4.37,16.34-4.37,25.33v109.7h-41.55Z"/>
      <path class="cls-1" d="M1601.56,361.69c-16.28,0-30.31-2.86-42.09-8.56-11.79-5.71-21.5-13.36-29.16-22.96-7.65-9.6-13.36-20.35-17.13-32.25-3.77-11.9-5.65-24.05-5.65-36.45s1.82-24.17,5.47-36.08c3.65-11.9,9.23-22.72,16.77-32.44,7.53-9.72,17.13-17.43,28.79-23.14,11.66-5.71,25.39-8.57,41.18-8.57,17,0,32.01,3.83,45.01,11.48,12.99,7.65,23.2,18.95,30.61,33.89,7.41,14.94,11.12,33.47,11.12,55.58v11.3h-137.03c.97,14.82,5.95,27.58,14.94,38.27,8.99,10.7,21.38,16.04,37.17,16.04,8.99,0,16.4-1.51,22.23-4.55,5.83-3.04,10.32-6.5,13.48-10.39,3.16-3.88,6.07-8.75,8.75-14.58h38.63c-2.43,8.51-5.29,15.92-8.57,22.23-3.28,6.32-7.96,12.64-14.03,18.95-6.08,6.32-14.09,11.61-24.05,15.85-9.97,4.25-22.11,6.38-36.45,6.38ZM1549.81,244.34h96.58c-.97-17-6.01-29.52-15.12-37.54-9.11-8.02-19.74-12.03-31.89-12.03-13.61,0-24.91,4.44-33.89,13.3-8.99,8.87-14.21,20.96-15.67,36.26Z"/>
      <path class="cls-1" d="M1711.26,358.05v-193.16h41.55v25.51h1.46c3.65-7.53,9.41-14.27,17.31-20.23,7.89-5.95,19.37-8.93,34.44-8.93,4.61,0,10.21.49,16.77,1.46v40.09c-7.29-.97-13.25-1.46-17.86-1.46-17.01,0-29.95,4.8-38.81,14.4-8.87,9.6-13.3,25.09-13.3,46.47v95.85h-41.55Z"/>
    </g>
    <path class="cls-2" d="M176.92,38.08c9.94,25.46,6.86,62.57-25.71,62.57-27.22,0-36.13-33.39-25.64-54.52C143.26,10.53,181.46-2.62,227.53,6.72c55.06,11.16,84.89,59.73,77.97,106.88-7.88,53.69-49.23,66.08-83.83,60.86-30.6-4.62-53.88-24.83-56.49-37.58-2.77-13.51,13.55-18.09,45.78-10.74,60.06,13.69,111.24,70.17,98.76,136.28-8.51,45.06-42.16,88.01-115.47,88.01s-129.73-46.55-128.68-122.5c1.07-77.43,68.07-104.59,68.07-104.59-29.59,11.27-89.43,48.47-92.98,115.89-3.35,63.7,53.48,124.18,150.91,124.18,78.52,0,133.06-38.77,144.11-95.59,12.22-62.79-39.02-121.88-121.53-144.3-28.13-7.65-69.73-10.5-64.18,14.66,4.18,18.93,34.31,36.07,68.36,39.66,56.46,5.95,98.94-17.52,105.51-61.35,7.15-47.67-29.15-100.17-94.43-112.75-47.92-9.24-99.1-3.18-119.67,37.95-12.56,25.12.15,69.86,38.3,69.86,44.65,0,44.62-48.99,28.86-73.48Z"/>
  </g>
</svg>