<?xml version="1.0" encoding="UTF-8"?>
<svg id="Calque_2" data-name="Calque 2" xmlns="http://www.w3.org/2000/svg" viewBox="0 0 1647.16 239.15">
  <defs>
    <style>
      .cls-1 {
        fill: #f8f5f4;
      }

      .cls-2 {
        fill: #080808;
      }
    </style>
  </defs>
  <g id="Calque_5" data-name="Calque 5">
    <g>
      <path class="cls-1" d="M74.05,189.61c-9.74,0-17.54-1.78-23.41-5.33-5.88-3.55-10.08-8.3-12.63-14.25-2.55-5.95-3.82-12.4-3.82-19.35v-64.9H12.63v-21.32h21.55v-30.59h26.42v30.59h28.74v21.32h-28.74v64.43c0,11.59,6.41,17.38,19.24,17.38,3.25,0,7.65-.46,13.21-1.39v21.56c-7.57,1.23-13.91,1.85-19,1.85Z"/>
      <path class="cls-1" d="M160.97,189.61c-10.2,0-19.09-1.82-26.65-5.45-7.57-3.63-13.79-8.5-18.66-14.6-4.87-6.1-8.5-12.94-10.89-20.51-2.4-7.57-3.59-15.3-3.59-23.18s1.2-15.37,3.59-22.95c2.39-7.57,5.99-14.45,10.78-20.63,4.79-6.18,10.85-11.09,18.19-14.72,7.34-3.63,16.11-5.45,26.31-5.45s20.17,2.43,28.51,7.3,14.87,12.05,19.58,21.56c4.71,9.5,7.07,21.29,7.07,35.35v7.19h-87.38c.62,9.43,3.79,17.54,9.5,24.34,5.71,6.8,13.59,10.2,23.64,10.2,5.71,0,10.43-.96,14.14-2.9,3.71-1.93,6.61-4.13,8.69-6.61,2.09-2.47,3.9-5.56,5.45-9.27h24.57c-1.55,5.41-3.32,10.12-5.33,14.14-2.01,4.02-4.98,8.04-8.92,12.05-3.94,4.02-9.04,7.38-15.3,10.08-6.26,2.7-14.02,4.06-23.29,4.06ZM128.06,114.98h61.42c-.46-10.81-3.63-18.77-9.5-23.87-5.88-5.1-12.6-7.65-20.16-7.65-8.81,0-16.07,2.82-21.79,8.46-5.72,5.64-9.04,13.33-9.97,23.06ZM170.47,46.61l-21.09-.23,19.47-41.72h25.96l-24.34,41.95Z"/>
      <path class="cls-1" d="M232.36,187.3l.23-176.15h26.19v176.15h-26.42Z"/>
      <path class="cls-1" d="M335.73,189.61c-10.2,0-19.08-1.82-26.65-5.45-7.57-3.63-13.79-8.5-18.66-14.6-4.87-6.1-8.5-12.94-10.89-20.51-2.4-7.57-3.59-15.3-3.59-23.18s1.2-15.37,3.59-22.95c2.39-7.57,5.99-14.45,10.78-20.63,4.79-6.18,10.85-11.09,18.2-14.72,7.34-3.63,16.11-5.45,26.31-5.45s20.16,2.43,28.51,7.3,14.87,12.05,19.59,21.56c4.71,9.5,7.07,21.29,7.07,35.35v7.19h-87.38c.62,9.43,3.78,17.54,9.5,24.34,5.71,6.8,13.6,10.2,23.64,10.2,5.71,0,10.43-.96,14.14-2.9,3.71-1.93,6.61-4.13,8.69-6.61,2.09-2.47,3.9-5.56,5.45-9.27h24.57c-1.55,5.41-3.32,10.12-5.33,14.14-2.01,4.02-4.98,8.04-8.92,12.05-3.94,4.02-9.04,7.38-15.3,10.08-6.26,2.7-14.02,4.06-23.29,4.06ZM302.81,114.98h61.42c-.46-10.81-3.63-18.77-9.5-23.87-5.87-5.1-12.6-7.65-20.16-7.65-8.81,0-16.07,2.82-21.79,8.46-5.72,5.64-9.04,13.33-9.97,23.06ZM345.23,46.61l-21.09-.23,19.47-41.72h25.96l-24.34,41.95Z"/>
      <path class="cls-1" d="M463.67,189.61c-10.35,0-19.39-1.82-27.12-5.45-7.73-3.63-14.14-8.5-19.24-14.6-5.1-6.1-8.92-12.94-11.47-20.51-2.55-7.57-3.83-15.3-3.83-23.18s1.28-15.61,3.83-23.18c2.55-7.57,6.37-14.41,11.47-20.51,5.1-6.1,11.51-10.97,19.24-14.6,7.72-3.63,16.77-5.45,27.12-5.45s18.66,1.51,25.38,4.52c6.72,3.01,12.09,6.76,16.11,11.24,4.02,4.48,7.03,8.96,9.04,13.44,2.01,4.48,3.55,9.81,4.63,15.99h-25.03c-1.39-4.63-3.09-8.5-5.1-11.59-2.01-3.09-4.98-5.79-8.92-8.11-3.94-2.32-9.23-3.48-15.88-3.48-7.88,0-14.45,1.97-19.7,5.91-5.25,3.94-9.23,9.08-11.94,15.41-2.71,6.34-4.06,13.13-4.06,20.4s1.35,14.06,4.06,20.4c2.7,6.34,6.68,11.47,11.94,15.41,5.25,3.94,11.82,5.91,19.7,5.91,6.64,0,11.94-1.16,15.88-3.48,3.94-2.32,6.91-5.02,8.92-8.11,2.01-3.09,3.71-6.95,5.1-11.59h25.03c-1.08,6.18-2.63,11.51-4.63,15.99-2.01,4.48-5.02,8.96-9.04,13.44-4.02,4.48-9.39,8.23-16.11,11.24-6.72,3.01-15.18,4.52-25.38,4.52Z"/>
      <path class="cls-1" d="M535.75,187.3V11.15h26.42v71.16h1.39c1.08-2.16,2.93-4.83,5.56-8,2.63-3.17,6.29-5.99,11.01-8.46,4.71-2.47,10.7-3.71,17.96-3.71,9.12,0,16.76,2.09,22.95,6.26,6.18,4.17,10.85,9.74,14.02,16.69,3.17,6.95,4.75,14.6,4.75,22.95v79.27h-26.42v-76.49c0-7.42-2.05-13.68-6.14-18.77-4.1-5.1-10.16-7.65-18.19-7.65-6.34,0-11.47,1.59-15.41,4.75-3.94,3.17-6.84,7.26-8.69,12.28-1.85,5.02-2.78,10.39-2.78,16.11v69.77h-26.42Z"/>
      <path class="cls-1" d="M709.12,62.14c7.72,0,14.17,1.24,19.35,3.71,5.18,2.47,9.31,5.33,12.4,8.58,3.09,3.25,5.33,6.03,6.72,8.34h1.39v-18.31h26.42v122.84h-26.42v-18.31h-1.39c-1.39,2.32-3.63,5.1-6.72,8.34-3.09,3.25-7.22,6.11-12.4,8.58-5.18,2.47-11.63,3.71-19.35,3.71-9.27,0-17.35-1.82-24.22-5.45-6.88-3.63-12.63-8.5-17.27-14.6-4.63-6.1-8.08-12.94-10.31-20.51-2.24-7.57-3.36-15.3-3.36-23.18s1.12-15.61,3.36-23.18c2.24-7.57,5.68-14.41,10.31-20.51,4.63-6.1,10.39-10.97,17.27-14.6,6.87-3.63,14.95-5.45,24.22-5.45ZM714.92,84.16c-7.57,0-13.91,2.05-19.01,6.14-5.1,4.1-8.92,9.31-11.47,15.64-2.55,6.34-3.82,12.98-3.82,19.93s1.27,13.6,3.82,19.93c2.55,6.34,6.37,11.55,11.47,15.65,5.1,4.1,11.43,6.14,19.01,6.14s13.87-2.05,18.89-6.14c5.02-4.09,8.81-9.31,11.36-15.65,2.55-6.33,3.82-12.98,3.82-19.93s-1.27-13.6-3.82-19.93c-2.55-6.33-6.34-11.55-11.36-15.64-5.02-4.09-11.32-6.14-18.89-6.14Z"/>
      <path class="cls-1" d="M792.09,187.3v-122.84h26.42v16.22h.93c2.32-4.79,5.99-9.08,11.01-12.86,5.02-3.78,12.32-5.68,21.9-5.68,2.93,0,6.49.31,10.66.93v25.5c-4.64-.62-8.42-.93-11.36-.93-10.82,0-19.05,3.05-24.69,9.15-5.64,6.11-8.46,15.96-8.46,29.55v60.96h-26.42Z"/>
      <path class="cls-1" d="M924.44,236.2c-10.66,0-19.47-1.39-26.42-4.17s-12.52-6.22-16.69-10.31c-4.17-4.1-7.27-8.19-9.27-12.28-2.01-4.1-3.63-8.92-4.87-14.49h26.19c1.23,3.86,2.9,7.07,4.98,9.62s5.21,4.79,9.39,6.72c4.17,1.93,9.66,2.9,16.46,2.9,8.03,0,14.49-1.59,19.35-4.75,4.87-3.17,8.34-7.34,10.43-12.52,2.09-5.18,3.13-10.78,3.13-16.8v-13.91h-1.16c-1.7,2.63-4.14,5.53-7.3,8.69-3.17,3.17-7.38,5.91-12.63,8.23-5.26,2.32-11.59,3.48-19.01,3.48-9.27,0-17.35-1.77-24.22-5.33-6.88-3.55-12.6-8.3-17.15-14.25-4.56-5.95-8-12.63-10.31-20.05-2.32-7.42-3.48-14.99-3.48-22.71s1.16-15.26,3.48-22.6c2.32-7.34,5.75-13.98,10.31-19.93,4.56-5.95,10.28-10.7,17.15-14.25,6.87-3.55,14.95-5.33,24.22-5.33,7.42,0,13.75,1.12,19.01,3.36,5.25,2.24,9.5,4.95,12.75,8.11,3.24,3.17,5.64,6.14,7.19,8.92h1.16v-18.08h26.42v115.43c0,10.97-2.24,20.7-6.72,29.2-4.48,8.5-11.12,15.14-19.93,19.93-8.81,4.79-19.62,7.19-32.45,7.19ZM923.05,164.81c7.57,0,13.91-1.97,19.01-5.91,5.1-3.94,8.88-9,11.36-15.18,2.47-6.18,3.71-12.67,3.71-19.47s-1.24-13.29-3.71-19.47c-2.47-6.18-6.26-11.2-11.36-15.07-5.1-3.86-11.44-5.79-19.01-5.79s-14.14,1.93-19.24,5.79c-5.1,3.86-8.89,8.89-11.36,15.07-2.47,6.18-3.71,12.67-3.71,19.47s1.24,13.29,3.71,19.47c2.47,6.18,6.26,11.24,11.36,15.18s11.51,5.91,19.24,5.91Z"/>
      <path class="cls-1" d="M1054.23,189.61c-10.35,0-19.28-1.82-26.77-5.45-7.5-3.63-13.68-8.5-18.54-14.6-4.87-6.1-8.5-12.94-10.89-20.51-2.4-7.57-3.59-15.3-3.59-23.18s1.16-15.37,3.48-22.95c2.32-7.57,5.87-14.45,10.66-20.63,4.79-6.18,10.89-11.09,18.31-14.72,7.42-3.63,16.14-5.45,26.19-5.45,10.81,0,20.36,2.43,28.62,7.3,8.26,4.87,14.75,12.05,19.47,21.56,4.71,9.5,7.07,21.29,7.07,35.35v7.19h-87.15c.62,9.43,3.78,17.54,9.5,24.34,5.71,6.8,13.6,10.2,23.64,10.2,5.71,0,10.43-.96,14.14-2.9,3.71-1.93,6.57-4.13,8.58-6.61,2.01-2.47,3.86-5.56,5.56-9.27h24.57c-1.55,5.41-3.36,10.12-5.45,14.14-2.09,4.02-5.06,8.04-8.92,12.05-3.87,4.02-8.96,7.38-15.3,10.08-6.34,2.7-14.06,4.06-23.18,4.06ZM1021.32,114.98h61.42c-.62-10.81-3.82-18.77-9.62-23.87-5.79-5.1-12.56-7.65-20.28-7.65-8.65,0-15.84,2.82-21.55,8.46-5.72,5.64-9.04,13.33-9.97,23.06Z"/>
      <path class="cls-1" d="M1122.38,187.3v-122.84h26.42v17.38h.93c1.39-2.47,3.44-5.25,6.14-8.34,2.7-3.09,6.29-5.75,10.78-8,4.48-2.24,10.12-3.36,16.92-3.36,9.12,0,16.69,2.17,22.71,6.49,6.03,4.33,10.51,10.05,13.44,17.15h.46c3.24-6.18,7.96-11.67,14.14-16.46,6.18-4.79,14.37-7.19,24.57-7.19,8.65,0,15.99,2.05,22.02,6.14,6.03,4.1,10.55,9.58,13.56,16.46,3.01,6.88,4.52,14.64,4.52,23.29v79.27h-26.42v-75.56c0-8.03-1.93-14.6-5.79-19.7-3.87-5.1-9.58-7.65-17.15-7.65-6.18,0-11.17,1.7-14.95,5.1-3.79,3.4-6.53,7.61-8.23,12.63-1.7,5.02-2.55,10.08-2.55,15.18v70h-26.42v-75.56c0-8.03-1.93-14.6-5.79-19.7-3.86-5.1-9.58-7.65-17.15-7.65-6.18,0-11.17,1.7-14.95,5.1-3.79,3.4-6.53,7.61-8.23,12.63-1.7,5.02-2.55,10.08-2.55,15.18v70h-26.42Z"/>
      <path class="cls-1" d="M1372.93,189.61c-10.35,0-19.28-1.82-26.77-5.45-7.5-3.63-13.68-8.5-18.54-14.6-4.87-6.1-8.5-12.94-10.89-20.51-2.4-7.57-3.59-15.3-3.59-23.18s1.16-15.37,3.48-22.95c2.32-7.57,5.87-14.45,10.66-20.63,4.79-6.18,10.89-11.09,18.31-14.72,7.42-3.63,16.14-5.45,26.19-5.45,10.81,0,20.36,2.43,28.62,7.3,8.26,4.87,14.75,12.05,19.47,21.56,4.71,9.5,7.07,21.29,7.07,35.35v7.19h-87.15c.62,9.43,3.78,17.54,9.5,24.34,5.71,6.8,13.6,10.2,23.64,10.2,5.71,0,10.43-.96,14.14-2.9,3.71-1.93,6.57-4.13,8.58-6.61,2.01-2.47,3.86-5.56,5.56-9.27h24.57c-1.55,5.41-3.36,10.12-5.45,14.14-2.09,4.02-5.06,8.04-8.92,12.05-3.87,4.02-8.96,7.38-15.3,10.08-6.34,2.7-14.06,4.06-23.18,4.06ZM1340.02,114.98h61.42c-.62-10.81-3.82-18.77-9.62-23.87-5.79-5.1-12.56-7.65-20.28-7.65-8.65,0-15.84,2.82-21.55,8.46-5.72,5.64-9.04,13.33-9.97,23.06Z"/>
      <path class="cls-1" d="M1441.07,187.3v-122.84h26.42v17.85h1.39c1.08-2.16,2.93-4.83,5.56-8,2.62-3.17,6.29-5.99,11.01-8.46,4.71-2.47,10.7-3.71,17.96-3.71,9.12,0,16.77,2.09,22.95,6.26,6.18,4.17,10.85,9.74,14.02,16.69,3.17,6.95,4.75,14.6,4.75,22.95v79.27h-26.42v-76.49c0-7.42-2.05-13.68-6.14-18.77-4.1-5.1-10.16-7.65-18.2-7.65-6.34,0-11.47,1.59-15.41,4.75-3.94,3.17-6.84,7.26-8.69,12.28-1.85,5.02-2.78,10.39-2.78,16.11v69.77h-26.42Z"/>
      <path class="cls-1" d="M1611.89,189.61c-9.74,0-17.54-1.78-23.41-5.33-5.88-3.55-10.08-8.3-12.63-14.25-2.55-5.95-3.82-12.4-3.82-19.35v-64.9h-21.55v-21.32h21.55v-30.59h26.42v30.59h28.74v21.32h-28.74v64.43c0,11.59,6.41,17.38,19.24,17.38,3.25,0,7.65-.46,13.21-1.39v21.56c-7.57,1.23-13.91,1.85-19,1.85Z"/>
    </g>
  </g>
</svg>