<?xml version="1.0" encoding="UTF-8"?>
<svg id="Calque_2" data-name="Calque 2" xmlns="http://www.w3.org/2000/svg" viewBox="0 0 863.55 239.15">
  <defs>
    <style>
      .cls-1 {
        fill: #f8f5f4;
      }

      .cls-2 {
        fill: #080808;
      }
    </style>
  </defs>
  <g id="Calque_6" data-name="Calque 6">
    <g>
      <path class="cls-1" d="M74.05,189.62c-9.74,0-17.54-1.78-23.41-5.33-5.88-3.55-10.08-8.3-12.63-14.25-2.55-5.95-3.82-12.4-3.82-19.35v-64.9H12.63v-21.32h21.55v-30.59h26.42v30.59h28.74v21.32h-28.74v64.43c0,11.59,6.41,17.38,19.24,17.38,3.25,0,7.65-.46,13.21-1.39v21.56c-7.57,1.23-13.91,1.85-19,1.85Z"/>
      <path class="cls-1" d="M145.67,189.62c-12.36,0-22.02-3.86-28.97-11.59-6.95-7.72-10.43-18-10.43-30.83v-82.75h26.42v79.5c0,7.42,1.97,13.18,5.91,17.27,3.94,4.1,9.31,6.14,16.11,6.14s11.97-1.7,15.99-5.1c4.02-3.4,6.91-7.76,8.69-13.1,1.78-5.33,2.67-10.85,2.67-16.57v-68.14h26.42v122.84h-26.42v-17.62h-1.39c-1.24,2.32-3.21,5.06-5.91,8.23-2.71,3.17-6.41,5.91-11.13,8.23-4.71,2.32-10.7,3.48-17.96,3.48Z"/>
      <path class="cls-1" d="M278.94,189.62c-9.73,0-17.54-1.78-23.41-5.33-5.87-3.55-10.08-8.3-12.63-14.25-2.55-5.95-3.82-12.4-3.82-19.35v-64.9h-21.56v-21.32h21.56v-30.59h26.42v30.59h28.74v21.32h-28.74v64.43c0,11.59,6.41,17.38,19.24,17.38,3.24,0,7.65-.46,13.21-1.39v21.56c-7.57,1.23-13.91,1.85-19.01,1.85Z"/>
      <path class="cls-1" d="M367.25,189.62c-13.44,0-24.76-3.01-33.96-9.04-9.2-6.03-16.15-13.91-20.86-23.64-4.71-9.73-7.07-20.08-7.07-31.06s2.36-21.32,7.07-31.06c4.71-9.73,11.66-17.62,20.86-23.64,9.19-6.03,20.51-9.04,33.96-9.04s24.53,3.01,33.72,9.04c9.19,6.03,16.14,13.91,20.86,23.64,4.71,9.73,7.07,20.09,7.07,31.06s-2.36,21.32-7.07,31.06c-4.71,9.74-11.67,17.62-20.86,23.64-9.2,6.03-20.44,9.04-33.72,9.04ZM367.25,167.13c7.57,0,13.94-1.93,19.12-5.79,5.17-3.86,9.12-8.96,11.82-15.3,2.7-6.33,4.06-13.06,4.06-20.16s-1.36-14.02-4.06-20.28c-2.71-6.26-6.65-11.32-11.82-15.18-5.18-3.86-11.55-5.79-19.12-5.79s-13.99,1.93-19.24,5.79c-5.26,3.86-9.2,8.92-11.82,15.18-2.63,6.26-3.94,13.02-3.94,20.28s1.31,13.83,3.94,20.16c2.62,6.34,6.56,11.44,11.82,15.3,5.25,3.86,11.66,5.79,19.24,5.79Z"/>
      <path class="cls-1" d="M443.5,187.3v-122.84h26.42v16.22h.93c2.32-4.79,5.99-9.08,11.01-12.86,5.02-3.78,12.32-5.68,21.9-5.68,2.93,0,6.49.31,10.66.93v25.5c-4.64-.62-8.42-.93-11.36-.93-10.82,0-19.05,3.05-24.69,9.15-5.64,6.11-8.46,15.96-8.46,29.55v60.96h-26.42Z"/>
      <path class="cls-1" d="M543.86,43.37c-4.79,0-8.73-1.62-11.82-4.87-3.09-3.24-4.63-7.03-4.63-11.36s1.54-8.3,4.63-11.47c3.09-3.17,7.03-4.75,11.82-4.75s8.77,1.59,11.94,4.75c3.17,3.17,4.75,6.99,4.75,11.47s-1.59,8.31-4.75,11.47c-3.17,3.17-7.15,4.75-11.94,4.75ZM530.88,187.3v-122.84h26.42v122.84h-26.42Z"/>
      <path class="cls-1" d="M634.95,189.62c-10.35,0-19.28-1.82-26.77-5.45-7.5-3.63-13.67-8.5-18.54-14.6-4.87-6.1-8.5-12.94-10.89-20.51-2.4-7.57-3.59-15.3-3.59-23.18s1.16-15.37,3.48-22.95c2.32-7.57,5.87-14.45,10.66-20.63,4.79-6.18,10.89-11.09,18.31-14.72,7.42-3.63,16.14-5.45,26.19-5.45,10.81,0,20.36,2.43,28.62,7.3,8.27,4.87,14.75,12.05,19.47,21.56,4.71,9.5,7.07,21.29,7.07,35.35v7.19h-87.15c.62,9.43,3.79,17.54,9.5,24.34,5.71,6.8,13.59,10.2,23.64,10.2,5.71,0,10.43-.96,14.14-2.9,3.71-1.93,6.56-4.13,8.58-6.61,2.01-2.47,3.86-5.56,5.56-9.27h24.57c-1.55,5.41-3.36,10.12-5.45,14.14-2.09,4.02-5.06,8.04-8.92,12.05-3.86,4.02-8.96,7.38-15.3,10.08-6.34,2.7-14.06,4.06-23.18,4.06ZM602.03,114.99h61.42c-.62-10.81-3.82-18.77-9.62-23.87-5.79-5.1-12.56-7.65-20.28-7.65-8.66,0-15.84,2.82-21.55,8.46-5.72,5.64-9.04,13.33-9.97,23.06Z"/>
      <path class="cls-1" d="M705.41,187.3l.23-176.15h26.19v176.15h-26.42Z"/>
      <path class="cls-1" d="M798.12,189.62c-9.73,0-17.73-1.35-23.99-4.06-6.26-2.7-11.24-6.03-14.95-9.97-3.71-3.94-6.45-7.92-8.23-11.94-1.78-4.02-3.13-8.73-4.05-14.14h25.73c1.08,3.86,2.47,7.03,4.17,9.5,1.7,2.47,4.32,4.68,7.88,6.61,3.55,1.93,8.26,2.9,14.14,2.9,7.11,0,12.4-1.62,15.88-4.87s5.21-6.95,5.21-11.12-1.47-7.19-4.4-9.5c-2.94-2.32-7.11-4.09-12.52-5.33l-16.69-3.71c-6.49-1.54-12.56-3.67-18.2-6.37-5.64-2.7-10.2-6.33-13.68-10.89-3.48-4.56-5.21-10.47-5.21-17.73,0-10.66,4.02-19.47,12.05-26.42,8.03-6.95,18.85-10.43,32.45-10.43,8.81,0,16.11,1.24,21.9,3.71,5.79,2.47,10.39,5.53,13.79,9.15,3.4,3.63,5.95,7.27,7.65,10.89,1.7,3.63,3.09,7.84,4.17,12.63h-24.8c-.93-3.09-2.17-5.68-3.71-7.76-1.55-2.09-3.82-3.94-6.84-5.56-3.01-1.62-7.07-2.43-12.17-2.43-6.95,0-11.98,1.55-15.07,4.64-3.09,3.09-4.63,6.41-4.63,9.97s1.51,6.61,4.52,8.69,6.99,3.67,11.94,4.75l16.46,3.71c10.97,2.47,20.01,6.53,27.12,12.17,7.11,5.64,10.66,13.79,10.66,24.45,0,7.11-1.82,13.56-5.45,19.35-3.63,5.79-8.92,10.43-15.88,13.91s-15.38,5.21-25.26,5.21Z"/>
    </g>
  </g>
</svg>