<?xml version="1.0" encoding="UTF-8"?>
<svg id="Calque_2" data-name="Calque 2" xmlns="http://www.w3.org/2000/svg" viewBox="0 0 960.92 239.15">
  <defs>
    <style>
      .cls-1 {
        fill: #f8f5f4;
      }

      .cls-2 {
        fill: #080808;
      }
    </style>
  </defs>
  <g id="Calque_4" data-name="Calque 4">
    <g>
      <path class="cls-1" d="M96.32,62.14c7.72,0,14.18,1.24,19.35,3.71,5.18,2.47,9.31,5.33,12.4,8.58,3.09,3.25,5.33,6.03,6.72,8.34h1.39v-18.31h26.42v122.84h-26.42v-18.31h-1.39c-1.39,2.32-3.63,5.1-6.72,8.34-3.09,3.25-7.22,6.11-12.4,8.58-5.18,2.47-11.63,3.71-19.35,3.71-9.27,0-17.35-1.82-24.22-5.45-6.88-3.63-12.63-8.5-17.27-14.6-4.63-6.1-8.08-12.94-10.31-20.51-2.24-7.57-3.36-15.3-3.36-23.18s1.12-15.61,3.36-23.18c2.24-7.57,5.68-14.41,10.31-20.51,4.64-6.1,10.39-10.97,17.27-14.6,6.87-3.63,14.95-5.45,24.22-5.45ZM102.11,84.16c-7.57,0-13.91,2.05-19.01,6.14-5.1,4.1-8.92,9.31-11.47,15.64-2.55,6.34-3.82,12.98-3.82,19.93s1.27,13.6,3.82,19.93c2.55,6.34,6.37,11.55,11.47,15.65,5.1,4.1,11.43,6.14,19.01,6.14s13.87-2.05,18.89-6.14c5.02-4.09,8.81-9.31,11.36-15.65,2.55-6.33,3.82-12.98,3.82-19.93s-1.27-13.6-3.82-19.93c-2.55-6.33-6.34-11.55-11.36-15.64-5.02-4.09-11.32-6.14-18.89-6.14ZM93.54,46.38L69.2,4.43h25.96l19.47,41.72-21.09.23Z"/>
      <path class="cls-1" d="M222.17,232.73V64.46h26.42v18.31h1.39c1.54-2.32,3.82-5.1,6.84-8.34s7.11-6.1,12.28-8.58c5.18-2.47,11.71-3.71,19.59-3.71,9.12,0,17.15,1.82,24.11,5.45,6.95,3.63,12.71,8.5,17.27,14.6,4.55,6.11,7.96,12.94,10.2,20.51,2.24,7.57,3.36,15.3,3.36,23.18s-1.12,15.61-3.36,23.18c-2.24,7.57-5.64,14.41-10.2,20.51-4.56,6.11-10.31,10.97-17.27,14.6s-14.99,5.45-24.11,5.45c-7.88,0-14.41-1.24-19.59-3.71-5.18-2.47-9.27-5.33-12.28-8.58-3.01-3.24-5.29-6.03-6.84-8.34h-1.39v63.74h-26.42ZM248.59,125.88c0,6.95,1.28,13.6,3.82,19.93,2.55,6.34,6.33,11.55,11.36,15.65,5.02,4.1,11.32,6.14,18.89,6.14s14.1-2.05,19.12-6.14c5.02-4.09,8.81-9.31,11.36-15.65,2.55-6.33,3.82-12.98,3.82-19.93s-1.28-13.6-3.82-19.93c-2.55-6.33-6.34-11.55-11.36-15.64-5.02-4.09-11.4-6.14-19.12-6.14s-13.87,2.05-18.89,6.14c-5.02,4.1-8.81,9.31-11.36,15.64-2.55,6.34-3.82,12.98-3.82,19.93Z"/>
      <path class="cls-1" d="M358.22,187.3v-122.84h26.42v16.22h.93c2.32-4.79,5.99-9.08,11.01-12.86,5.02-3.78,12.32-5.68,21.9-5.68,2.93,0,6.49.31,10.66.93v25.5c-4.64-.62-8.42-.93-11.36-.93-10.82,0-19.05,3.05-24.69,9.15-5.64,6.11-8.46,15.96-8.46,29.55v60.96h-26.42Z"/>
      <path class="cls-1" d="M489.87,189.62c-13.44,0-24.76-3.01-33.96-9.04-9.2-6.03-16.15-13.91-20.86-23.64-4.71-9.73-7.07-20.08-7.07-31.06s2.35-21.32,7.07-31.06c4.71-9.73,11.67-17.62,20.86-23.64,9.19-6.03,20.51-9.04,33.96-9.04s24.53,3.01,33.72,9.04c9.19,6.03,16.15,13.91,20.86,23.64,4.71,9.73,7.07,20.09,7.07,31.06s-2.36,21.32-7.07,31.06c-4.71,9.74-11.67,17.62-20.86,23.64-9.19,6.03-20.44,9.04-33.72,9.04ZM489.87,167.13c7.57,0,13.94-1.93,19.12-5.79,5.18-3.86,9.12-8.96,11.82-15.3,2.7-6.33,4.06-13.06,4.06-20.16s-1.35-14.02-4.06-20.28c-2.71-6.26-6.64-11.32-11.82-15.18-5.18-3.86-11.55-5.79-19.12-5.79s-13.99,1.93-19.24,5.79c-5.25,3.86-9.2,8.92-11.82,15.18-2.63,6.26-3.94,13.02-3.94,20.28s1.31,13.83,3.94,20.16c2.62,6.34,6.57,11.44,11.82,15.3,5.25,3.86,11.67,5.79,19.24,5.79Z"/>
      <path class="cls-1" d="M567.98,232.73V64.46h26.42v18.31h1.39c1.54-2.32,3.82-5.1,6.84-8.34s7.11-6.1,12.28-8.58c5.18-2.47,11.71-3.71,19.59-3.71,9.12,0,17.15,1.82,24.11,5.45,6.95,3.63,12.71,8.5,17.27,14.6,4.55,6.11,7.96,12.94,10.2,20.51,2.24,7.57,3.36,15.3,3.36,23.18s-1.12,15.61-3.36,23.18c-2.24,7.57-5.64,14.41-10.2,20.51-4.56,6.11-10.31,10.97-17.27,14.6s-14.99,5.45-24.11,5.45c-7.88,0-14.41-1.24-19.59-3.71-5.18-2.47-9.27-5.33-12.28-8.58-3.01-3.24-5.29-6.03-6.84-8.34h-1.39v63.74h-26.42ZM594.4,125.88c0,6.95,1.28,13.6,3.82,19.93,2.55,6.34,6.33,11.55,11.36,15.65,5.02,4.1,11.32,6.14,18.89,6.14s14.1-2.05,19.12-6.14c5.02-4.09,8.81-9.31,11.36-15.65,2.55-6.33,3.82-12.98,3.82-19.93s-1.28-13.6-3.82-19.93c-2.55-6.33-6.34-11.55-11.36-15.64-5.02-4.09-11.4-6.14-19.12-6.14s-13.87,2.05-18.89,6.14c-5.02,4.1-8.81,9.31-11.36,15.64-2.55,6.34-3.82,12.98-3.82,19.93Z"/>
      <path class="cls-1" d="M762.67,189.62c-13.44,0-24.76-3.01-33.96-9.04-9.2-6.03-16.15-13.91-20.86-23.64-4.71-9.73-7.07-20.08-7.07-31.06s2.36-21.32,7.07-31.06c4.71-9.73,11.66-17.62,20.86-23.64,9.19-6.03,20.51-9.04,33.96-9.04s24.53,3.01,33.72,9.04c9.19,6.03,16.14,13.91,20.86,23.64,4.71,9.73,7.07,20.09,7.07,31.06s-2.36,21.32-7.07,31.06c-4.71,9.74-11.67,17.62-20.86,23.64-9.2,6.03-20.44,9.04-33.72,9.04ZM762.67,167.13c7.57,0,13.94-1.93,19.12-5.79,5.17-3.86,9.12-8.96,11.82-15.3,2.7-6.33,4.06-13.06,4.06-20.16s-1.36-14.02-4.06-20.28c-2.71-6.26-6.65-11.32-11.82-15.18-5.18-3.86-11.55-5.79-19.12-5.79s-13.99,1.93-19.24,5.79c-5.26,3.86-9.2,8.92-11.82,15.18-2.63,6.26-3.94,13.02-3.94,20.28s1.31,13.83,3.94,20.16c2.62,6.34,6.56,11.44,11.82,15.3,5.25,3.86,11.66,5.79,19.24,5.79Z"/>
      <path class="cls-1" d="M886.21,189.62c-9.73,0-17.73-1.35-23.99-4.06-6.26-2.7-11.24-6.03-14.95-9.97-3.71-3.94-6.46-7.92-8.23-11.94-1.78-4.02-3.13-8.73-4.06-14.14h25.73c1.08,3.86,2.47,7.03,4.17,9.5,1.7,2.47,4.32,4.68,7.88,6.61,3.55,1.93,8.27,2.9,14.14,2.9,7.11,0,12.4-1.62,15.88-4.87s5.21-6.95,5.21-11.12-1.47-7.19-4.4-9.5c-2.94-2.32-7.11-4.09-12.52-5.33l-16.69-3.71c-6.49-1.54-12.56-3.67-18.2-6.37-5.64-2.7-10.2-6.33-13.67-10.89-3.48-4.56-5.21-10.47-5.21-17.73,0-10.66,4.02-19.47,12.05-26.42,8.03-6.95,18.85-10.43,32.45-10.43,8.81,0,16.11,1.24,21.9,3.71,5.79,2.47,10.39,5.53,13.79,9.15,3.4,3.63,5.95,7.27,7.65,10.89,1.7,3.63,3.09,7.84,4.17,12.63h-24.8c-.93-3.09-2.17-5.68-3.71-7.76-1.54-2.09-3.82-3.94-6.84-5.56-3.01-1.62-7.07-2.43-12.17-2.43-6.95,0-11.97,1.55-15.06,4.64-3.09,3.09-4.63,6.41-4.63,9.97s1.51,6.61,4.52,8.69c3.01,2.09,6.99,3.67,11.94,4.75l16.46,3.71c10.97,2.47,20.01,6.53,27.12,12.17,7.11,5.64,10.66,13.79,10.66,24.45,0,7.11-1.82,13.56-5.45,19.35-3.63,5.79-8.92,10.43-15.88,13.91s-15.38,5.21-25.26,5.21Z"/>
    </g>
  </g>
</svg>