<?xml version="1.0" encoding="UTF-8"?>
<svg id="Layer_2" data-name="Layer 2" xmlns="http://www.w3.org/2000/svg" viewBox="0 0 220 220">
  <defs>
    <style>
      .cls-1 {
        fill: #f4f4f4;
      }

      .cls-2 {
        fill: #ef530f;
      }
    </style>
  </defs>
  <g id="Layer_1-2" data-name="Layer 1">
    <path class="cls-2" d="M198.67,210.56c-27.37,7.15-50.93.23-72.79-18.03-23.9-19.96-40.23-50.33-64.69-114.96C36.73,12.94,15.27,1.94,15.27,1.94c23.98,9.1,46.57,35.71,67.11,84.73,20.54,49.03,36.5,86.91,60.49,110.02,23.98,23.11,55.81,12.43,55.81,12.43v1.43Z"/>
    <polygon class="cls-1" points="210 10 10 10 10 210 40 210 40 61.21 188.79 210 210 210 210 188.79 61.21 40 210 40 210 10"/>
    <path class="cls-2" d="M6.78,91.73C25.54,24.94,15.27,1.94,15.27,1.94c13.35,23.22,15.38,59.14,2.68,111.13-23.08,96.98,34.16,106.93,34.16,106.93,0,0-74.51-9.4-45.33-128.27Z"/>
    <path class="cls-2" d="M92.22,38.5C38.85-1.39,15.27,1.94,15.27,1.94c24.73-6.39,57.2,2.71,99.34,31.8,78.78,53.67,105.4-1.58,105.4-1.58,0,0-31.49,73.02-127.78,6.33Z"/>
  </g>
</svg>