<?xml version="1.0" encoding="UTF-8"?>
<svg id="Layer_2" data-name="Layer 2" xmlns="http://www.w3.org/2000/svg" viewBox="0 0 220 220">
  <defs>
    <style>
      .cls-1 {
        fill: #f4f4f4;
      }

      .cls-2 {
        fill: #ef530f;
      }
    </style>
  </defs>
  <g id="Layer_1-2" data-name="Layer 1">
    <path class="cls-2" d="M220,114.18c-.2,23.86,1.49,70.82-38.72,83.67-22.88,10.8-51.35,13.44-108.7,11.96C15.23,208.33,0,220,0,220c14.57-13.94,42.13-21.95,86.26-22.2,44.13-.25,78.26-.5,103.58-10.47,29.21-15.85,30.15-73.16,30.15-73.16Z"/>
    <path class="cls-2" d="M53.53,186.02c9.15-7.29,19.02-10.67,29.99-11.19,11.99-.57,22.75,2.74,41.79,11.93,19.04,9.19,28.76,7.15,28.76,7.15-10.37,2.99-22.89,1.82-38.07-4.74-15.19-6.55-26.96-11.6-39.47-11.71-12.51-.11-22.78,8.89-22.78,8.89l-.22-.32Z"/>
    <g>
      <polygon class="cls-1" points="180 190 40 190 40 150 10 150 10 220 210 220 210 150 180 150 180 190"/>
      <polygon class="cls-1" points="211.42 78.58 190.21 57.37 125 122.57 125 0 95 0 95 122.57 29.79 57.37 8.58 78.58 110 180 211.42 78.58"/>
    </g>
    <path class="cls-2" d="M154.07,193.9c-23.35-2.29-39.57-13.36-51.13-31.88-12.63-20.24-16.31-45.71-16.16-97.18C86.94,13.35,73.55,0,73.55,0c15.91,12.7,25.56,37.22,26.98,76.79,1.43,39.58,2.6,70.18,14.36,92.64,11.77,22.45,39.19,24.47,39.19,24.47Z"/>
    <path class="cls-2" d="M154.02,193.9c-7.49-8.68-10.58-17.74-10.43-27.6.17-10.78,4.58-20.18,16.07-36.61,11.5-16.43,9.88-25.26,9.88-25.26,2.63,9.48.48,20.61-7.83,33.77-8.31,13.16-14.72,23.35-15.68,34.54-.96,11.19,7.98,21.17,7.98,21.17Z"/>
  </g>
</svg>