<?xml version="1.0" encoding="UTF-8"?>
<svg id="Layer_2" data-name="Layer 2" xmlns="http://www.w3.org/2000/svg" viewBox="0 0 220 220">
  <defs>
    <style>
      .cls-1 {
        fill: #f4f4f4;
      }

      .cls-2 {
        fill: #ef530f;
      }
    </style>
  </defs>
  <g id="Layer_1-2" data-name="Layer 1">
    <path class="cls-2" d="M198.67,10.87s-31.82-10.68-55.81,12.43c-23.98,23.11-39.95,61-60.49,110.02-20.54,49.03-43.12,75.64-67.11,84.73,0,0,21.46-11,45.92-75.64,24.46-64.63,40.79-95,64.69-114.96,21.86-18.26,45.42-25.19,72.79-18.03v1.43Z"/>
    <polygon class="cls-1" points="210 210 10 210 10 10 40 10 40 158.79 188.79 10 210 10 210 31.21 61.21 180 210 180 210 210"/>
    <path class="cls-2" d="M52.11,0S-5.13,9.95,17.95,106.93c12.69,51.99,10.67,87.91-2.68,111.13,0,0,10.28-23-8.49-89.79C-22.41,9.4,52.11,0,52.11,0Z"/>
    <path class="cls-2" d="M220,187.83s-26.61-55.24-105.4-1.58c-42.14,29.09-74.6,38.2-99.34,31.8,0,0,23.58,3.33,76.95-36.56,96.29-66.69,127.78,6.33,127.78,6.33Z"/>
  </g>
</svg>